<svg width="98" height="286" viewBox="0 0 98 286" fill="none" xmlns="http://www.w3.org/2000/svg">
<path d="M49 43.6667C46.0545 43.6667 43.6667 46.0545 43.6667 49C43.6667 51.9455 46.0545 54.3333 49 54.3333C51.9455 54.3333 54.3333 51.9455 54.3333 49C54.3333 46.0545 51.9455 43.6667 49 43.6667ZM48 49L48 286H50L50 49H48Z" fill="black" fill-opacity="0.8"/>
<path d="M11.2129 90.7687L25.5242 53.1914H71.8251L86.1334 90.7687H11.2129Z" fill="#484746"/>
<path d="M0.390625 6.44601L21.7995 0.217773H75.5464L96.9553 6.44601H0.390625Z" fill="#484746"/>
<path d="M0 6.06445H97.3469L86.3689 91.0005H10.9779L0 6.06445ZM86.1337 90.7692L96.9558 6.44995H0.391086L11.2132 90.7692H86.1306" fill="#252423"/>
<path d="M96.9553 6.44629L86.1332 90.7689H11.2127L0.390625 6.44629H96.9553Z" fill="#252423"/>
<path d="M0 6.06398L21.5953 0H75.7516L97.3469 6.06398H0Z" fill="#484746"/>
<g clip-path="url(#clip0_966_6970)">
<path d="M38.6566 74.1C33.7123 74.1 26.9004 67.2868 26.9004 62.3438C26.9004 55.9454 31.9601 54.615 35.6529 53.6447C36.7245 53.3621 37.737 53.0963 38.4302 52.7504C39.6438 52.1429 40.3343 51.0052 41.067 49.8C42.0921 48.1125 43.1524 46.3688 45.6879 46.3688C47.7199 46.3688 49.0741 47.4249 49.5762 47.8946L59.3074 38.1633L59.9726 36.1679C59.9979 36.0933 60.0401 36.0258 60.0949 35.9696L60.4409 35.625L59.3918 34.576L60.109 33.8602L61.1566 34.9093L61.8471 34.2188L60.798 33.1697L61.5152 32.4539L62.5629 33.503L63.2534 32.8125L62.2043 31.7635L62.9215 31.0477L63.9691 32.0968L65.0168 31.0491C65.2151 30.8508 65.5357 30.8508 65.734 31.0491L69.9527 35.2679C70.151 35.4661 70.151 35.7854 69.9527 35.9836L68.9037 37.0313L69.9527 38.0804L69.2355 38.7961L68.1879 37.7471L67.4974 38.4375L68.5465 39.4866L67.8293 40.2024L66.7816 39.1533L66.0912 39.8438L67.1402 40.8929L66.423 41.6086L65.3754 40.5596L65.0309 40.9041C64.9746 40.9604 64.9071 41.0011 64.8326 41.0264L62.8357 41.6916L53.1045 51.4229C53.5741 51.9249 54.6316 53.2791 54.6316 55.3125C54.6316 57.848 52.8865 58.9083 51.2004 59.9321C49.9952 60.6647 48.8562 61.358 48.2501 62.5702C47.9041 63.2635 47.637 64.276 47.3557 65.3489C46.3854 69.0418 45.0551 74.1 38.6566 74.1ZM45.6879 47.3813C43.7234 47.3813 42.8937 48.7468 41.9332 50.326C41.1584 51.6 40.3568 52.9191 38.8845 53.656C38.097 54.0497 37.0366 54.3282 35.9116 54.6235C32.3482 55.56 27.9129 56.7258 27.9129 62.3438C27.9129 66.7622 34.2396 73.0875 38.6566 73.0875C44.2746 73.0875 45.4404 68.655 46.377 65.0902C46.6723 63.9666 46.9507 62.9035 47.3445 62.1174C48.0813 60.6436 49.399 59.8421 50.6745 59.0672C52.2551 58.1068 53.6191 57.2785 53.6191 55.3125C53.6191 53.67 52.7599 52.5493 52.3887 52.1414L50.2652 54.2649L49.5495 53.5491L62.2057 40.8929C62.262 40.8366 62.3295 40.7958 62.404 40.7705L64.4009 40.1054L68.8784 35.625L65.3754 32.1221L60.8951 36.601L60.2299 38.5964C60.2046 38.671 60.1624 38.7385 60.1076 38.7947L47.4513 51.451L46.7355 50.7352L48.8576 48.6118C48.4512 48.2419 47.329 47.3813 45.6879 47.3813ZM38.2995 68.3274L32.6745 62.7024L33.3902 61.9852L39.0152 67.6102L38.2995 68.3274ZM43.5785 61.4438C41.3609 61.4438 39.5566 59.6396 39.5566 57.4219C39.5566 55.2043 41.3609 53.4 43.5785 53.4C45.7962 53.4 47.6004 55.2043 47.6004 57.4219C47.6004 59.6396 45.7962 61.4438 43.5785 61.4438ZM43.5785 54.4125C41.9191 54.4125 40.5691 55.7625 40.5691 57.4219C40.5691 59.0813 41.9191 60.4313 43.5785 60.4313C45.2379 60.4313 46.5879 59.0813 46.5879 57.4219C46.5879 55.7625 45.2379 54.4125 43.5785 54.4125ZM48.8576 52.8572L48.1418 52.1414L60.798 39.4852L61.5152 40.201L48.8576 52.8572Z" fill="white"/>
</g>
<defs>
<clipPath id="clip0_966_6970">
<rect width="45" height="45" fill="white" transform="translate(26 30)"/>
</clipPath>
</defs>
</svg>
